<?xml version="1.0" encoding="utf-8"?>
<!-- Generator: Adobe Illustrator 25.2.0, SVG Export Plug-In . SVG Version: 6.00 Build 0)  -->
<svg version="1.1" id="Layer_1" xmlns="http://www.w3.org/2000/svg" xmlns:xlink="http://www.w3.org/1999/xlink" x="0px" y="0px"
	 viewBox="0 0 69.5 65" style="enable-background:new 0 0 69.5 65;" xml:space="preserve">
<style type="text/css">
	.st0{display:none;fill:#2E3192;}
	.st1{fill:none;stroke:#FFFFFF;stroke-width:3;stroke-miterlimit:10;}
	.st2{fill:#FFFFFF;stroke:#FFFFFF;stroke-width:2;stroke-miterlimit:10;}
</style>
<rect x="-30.13" class="st0" width="120.69" height="65"/>
<polygon class="st1" points="51.78,44.7 25.69,44.7 15.72,35.71 25.69,26.71 51.78,26.71 "/>
<g>
	<path class="st2" d="M38.39,39.17l-0.88-1.53c-0.36-0.59-0.59-0.97-0.8-1.37h-0.02c-0.2,0.4-0.39,0.77-0.75,1.38l-0.83,1.52h-1.03
		l2.12-3.51l-2.04-3.42h1.04l0.92,1.62c0.26,0.45,0.45,0.8,0.64,1.17h0.03c0.2-0.41,0.37-0.73,0.63-1.17l0.95-1.62h1.03l-2.11,3.37
		l2.16,3.56H38.39z"/>
</g>
</svg>
